<?xml version="1.0" encoding="UTF-8"?>
<svg id="_0" data-name="0" xmlns="http://www.w3.org/2000/svg" viewBox="0 0 68.03 68.03">
  <defs>
    <style>
      .cls-1 {
        fill: #fff;
      }
    </style>
  </defs>
  <g id="CIRCLE">
    <circle cx="28.27" cy="41.01" r="2.01"/>
  </g>
  <g id="CIRCLE-2" data-name="CIRCLE">
    <circle cx="40.33" cy="41.01" r="2.01"/>
  </g>
  <g id="LWPOLYLINE">
    <path d="M27.76,30.58v4.16c0,.26-.2.47-.46.47h-3.96c-.06,0-.11-.01-.16-.03-.24-.09-.37-.36-.28-.6l1.53-4.16c.06-.18.24-.3.43-.3h2.44c.26,0,.46.21.46.46Z"/>
  </g>
  <g id="LWPOLYLINE-2" data-name="LWPOLYLINE">
    <path class="cls-1" d="M27.76,30.58v4.16c0,.26-.2.47-.46.47h-3.96c-.06,0-.11-.01-.16-.03-.24-.09-.37-.36-.28-.6l1.53-4.16c.06-.18.24-.3.43-.3h2.44c.26,0,.46.21.46.46Z"/>
  </g>
  <path d="M43.37,24.28h-11.53c-1.97,0-3.57,1.57-3.62,3.54,0,.25-.21.45-.46.45h-2.9c-.97,0-1.83.61-2.17,1.52l-1.51,4.13c-.1.25-.14.52-.14.79v2.64c0,1.23.62,2.38,1.65,3.04,1.07.69,2.5.39,3.2-.68.01-.03.03-.06.05-.08.25-.44.62-.79,1.07-1.03,1.32-.69,2.96-.19,3.66,1.14.4.76,1.19,1.23,2.05,1.23h3.17c.85,0,1.64-.47,2.04-1.23.2-.38.49-.71.84-.95,1.22-.87,2.92-.57,3.78.65.73,1.05,2.17,1.3,3.22.56.21-.15.4-.33.55-.55.44-.61.67-1.34.67-2.1v-9.45c0-2-1.62-3.62-3.62-3.62ZM27.76,34.74c0,.26-.2.47-.46.47h-3.96c-.06,0-.11-.01-.16-.03-.24-.09-.37-.36-.28-.6l1.53-4.16c.06-.18.24-.3.43-.3h2.44c.26,0,.46.21.46.46v4.16Z"/>
</svg>