<?xml version="1.0" encoding="UTF-8"?>
<svg id="_x30_" xmlns="http://www.w3.org/2000/svg" version="1.1" viewBox="0 0 68 68">
  <!-- Generator: Adobe Illustrator 29.8.4, SVG Export Plug-In . SVG Version: 2.1.1 Build 6)  -->
  <defs>
    <style>
      .st0 {
        fill: #fff;
        stroke: #fff;
        stroke-linecap: round;
        stroke-linejoin: round;
        stroke-width: .7px;
      }
    </style>
  </defs>
  <path class="st0" d="M53.1,31.3c0-.5-.5-.9-1-.9h-3.3c-.4-1.5-1-3-1.8-4.4l2.3-2.3c.4-.4.4-.9.1-1.3-1.1-1.5-2.4-2.8-3.8-3.8-.4-.3-1-.3-1.3.1l-2.3,2.3c-1.4-.8-2.8-1.4-4.4-1.8v-3.3c0-.5-.4-.9-.9-1-1.8-.3-3.6-.3-5.4,0-.5,0-.9.5-.9,1v3.3c-1.5.4-3,1-4.4,1.8l-2.3-2.3c-.4-.4-.9-.4-1.3-.1-1.5,1.1-2.8,2.4-3.8,3.8-.3.4-.3,1,.1,1.3l2.3,2.3c-.8,1.4-1.4,2.8-1.8,4.4h-3.3c-.5,0-.9.4-1,.9-.3,1.8-.3,3.6,0,5.4,0,.5.5.9,1,.9h3.3c.4,1.5,1,3,1.8,4.4l-2.3,2.3c-.4.4-.4.9-.1,1.3,1.1,1.5,2.4,2.8,3.8,3.8.4.3,1,.3,1.3-.1l2.3-2.3c1.4.8,2.8,1.4,4.4,1.8v3.3c0,.5.4.9.9,1,1.8.3,3.6.3,5.4,0,.5,0,.9-.5.9-1v-3.3c1.5-.4,3-1,4.4-1.8l2.3,2.3c.4.4.9.4,1.3.1,1.5-1.1,2.8-2.4,3.8-3.8.3-.4.3-1-.1-1.3l-2.3-2.3c.8-1.4,1.4-2.8,1.8-4.4h3.3c.5,0,.9-.4,1-.9.3-1.8.3-3.6,0-5.4ZM34,45.7c-6.4,0-11.6-5.2-11.6-11.6s5.2-11.6,11.6-11.6,11.6,5.2,11.6,11.6-5.2,11.6-11.6,11.6Z"/>
</svg>