<?xml version="1.0" encoding="UTF-8"?>
<svg id="_0" data-name="0" xmlns="http://www.w3.org/2000/svg" viewBox="0 0 68.03 68.03">
  <defs>
    <style>
      .cls-1, .cls-2 {
        stroke: #000;
        stroke-linecap: round;
        stroke-linejoin: round;
        stroke-width: .71px;
      }

      .cls-2 {
        fill: #fff;
      }
    </style>
  </defs>
  <g id="LWPOLYLINE">
    <path class="cls-1" d="M36.73,14.93c-1.8-.29-3.63-.29-5.42,0-.5.08-.86.51-.86,1.01v3.28c-1.54.37-3.01.98-4.37,1.81l-2.32-2.32c-.35-.35-.91-.4-1.32-.1-1.47,1.07-2.77,2.36-3.83,3.83-.29.41-.25.97.1,1.32l2.32,2.32c-.83,1.35-1.44,2.83-1.81,4.37h-3.28c-.5,0-.93.36-1.01.86-.29,1.8-.29,3.63,0,5.42.08.5.51.86,1.01.86h3.28c.37,1.54.98,3.01,1.81,4.37l-2.32,2.32c-.35.35-.4.91-.1,1.32,1.07,1.47,2.36,2.77,3.83,3.83.41.29.97.25,1.32-.1l2.32-2.32c1.35.83,2.83,1.44,4.37,1.81v3.28c0,.5.36.93.86,1.01,1.8.29,3.63.29,5.42,0,.5-.08.86-.51.86-1.01v-3.28c1.54-.37,3.01-.98,4.37-1.81l2.32,2.32c.35.35.91.4,1.32.1,1.47-1.07,2.77-2.36,3.83-3.83.29-.41.25-.97-.1-1.32l-2.32-2.32c.83-1.35,1.44-2.83,1.81-4.37h3.28c.5,0,.93-.36,1.01-.86.29-1.8.29-3.63,0-5.42-.08-.5-.51-.86-1.01-.86h-3.28c-.37-1.54-.98-3.01-1.81-4.37l2.32-2.32c.35-.35.4-.91.1-1.32-1.07-1.47-2.36-2.77-3.83-3.83-.41-.29-.97-.25-1.32.1l-2.32,2.32c-1.35-.83-2.83-1.44-4.37-1.81v-3.28c0-.5-.36-.93-.86-1.01Z"/>
  </g>
  <g id="CIRCLE">
    <circle class="cls-2" cx="34.02" cy="34.02" r="11.65"/>
  </g>
</svg>