<?xml version="1.0" encoding="UTF-8"?>
<svg id="_x30_" xmlns="http://www.w3.org/2000/svg" version="1.1" viewBox="0 0 68 68">
  <!-- Generator: Adobe Illustrator 29.8.4, SVG Export Plug-In . SVG Version: 2.1.1 Build 6)  -->
  <defs>
    <style>
      .st0 {
        fill: #fff;
      }
    </style>
  </defs>
  <g id="CIRCLE">
    <circle class="st0" cx="28.4" cy="41.4" r="2"/>
  </g>
  <g id="CIRCLE1" data-name="CIRCLE">
    <circle class="st0" cx="40.5" cy="41.4" r="2"/>
  </g>
  <path class="st0" d="M43.5,24.6h-11.5c-2,0-3.6,1.6-3.6,3.5,0,.2-.2.5-.5.5h-2.9c-1,0-1.8.6-2.2,1.5l-1.5,4.1c0,.2-.1.5-.1.8v2.6c0,1.2.6,2.4,1.6,3,1.1.7,2.5.4,3.2-.7,0,0,0,0,0,0,.2-.4.6-.8,1.1-1,1.3-.7,3-.2,3.7,1.1.4.8,1.2,1.2,2,1.2h3.2c.8,0,1.6-.5,2-1.2.2-.4.5-.7.8-.9,1.2-.9,2.9-.6,3.8.6.7,1,2.2,1.3,3.2.6.2-.1.4-.3.5-.5.4-.6.7-1.3.7-2.1v-9.5c0-2-1.6-3.6-3.6-3.6ZM27.9,35.1c0,.3-.2.5-.5.5h-4c0,0-.1,0-.2,0-.2,0-.4-.4-.3-.6l1.5-4.2c0-.2.2-.3.4-.3h2.4c.3,0,.5.2.5.5v4.2Z"/>
</svg>